<svg version="1.1" viewBox="0 0 96 96" xmlns="http://www.w3.org/2000/svg" xmlns:xlink="http://www.w3.org/1999/xlink" id="Icons_LineSlightCurve" overflow="hidden"><path d=" M 91 45.9 L 77 31.9 C 75.8 31.1 74.2 31.3 73.2 32.3 C 72.2 33.3 72 34.9 72.8 36.1 L 81.7 45 L 71 45 C 68.2 45 65.2 45.1 62 45.1 C 44.6 45.4 18.2 45.8 13.8 35.8 C 13.1 34.3 11.4 33.6 9.8 34.3 C 8.3 35 7.6 36.7 8.3 38.3 C 13.4 49.7 32.6 51.3 51.2 51.3 C 54.9 51.3 58.6 51.2 62.1 51.2 C 65.3 51.1 68.3 51.1 71 51.1 L 81.8 51.1 L 72.9 60 C 72 61.2 72.1 62.9 73.1 64 C 74.1 65.1 75.9 65.2 77.1 64.2 L 91.1 50.2 C 91.4 49.9 91.6 49.6 91.7 49.2 C 91.7 49.1 91.8 49 91.8 48.9 C 91.8 48.8 91.8 48.8 91.9 48.7 C 91.9 48.6 91.9 48.5 91.9 48.4 C 91.9 48.3 91.9 48.2 91.9 48.1 C 91.9 48 91.9 48 91.9 47.9 C 91.8 47.1 91.5 46.4 91 45.9 Z" stroke="none" stroke-width="1" stroke-dasharray="" stroke-dashoffset="1" fill="#FF9800" fill-opacity="1"/></svg>